<svg xmlns="http://www.w3.org/2000/svg" viewBox="0 0 130 120" width="130" height="120" role="img" aria-label="Fortes">
  <defs>
    <linearGradient id="lm" x1="0" y1="0" x2="0" y2="1">
      <stop offset="0" stop-color="#2C4F8C"/><stop offset="1" stop-color="#13213f"/>
    </linearGradient>
    <linearGradient id="rm" x1="0" y1="0" x2="0" y2="1">
      <stop offset="0" stop-color="#21407a"/><stop offset="1" stop-color="#0e1630"/>
    </linearGradient>
    <radialGradient id="sn" cx="0.5" cy="0.45" r="0.55">
      <stop offset="0" stop-color="#FFFBF0"/><stop offset="0.35" stop-color="#F0CF86"/>
      <stop offset="0.7" stop-color="#D8B15A"/><stop offset="1" stop-color="#C9A84C"/>
    </radialGradient>
    <radialGradient id="gb" cx="0.5" cy="0.5" r="0.5">
      <stop offset="0" stop-color="#E8C97A" stop-opacity="0.7"/>
      <stop offset="0.5" stop-color="#D8B15A" stop-opacity="0.28"/>
      <stop offset="1" stop-color="#C9A84C" stop-opacity="0"/>
    </radialGradient>
  </defs>
  <g transform="translate(4,5)">
    <circle cx="62" cy="50" r="50" fill="url(#gb)"/>
    <g stroke="#F0E2C0" stroke-width="1.3" stroke-linecap="round" opacity="0.8" fill="none">
      <line x1="62" y1="50" x2="46" y2="28"/><line x1="62" y1="50" x2="60" y2="15"/>
      <line x1="62" y1="50" x2="78" y2="19"/><line x1="62" y1="50" x2="90" y2="32"/>
    </g>
    <g fill="#F0E2C0">
      <circle cx="46" cy="28" r="2.1"/><circle cx="60" cy="15" r="2.1"/>
      <circle cx="78" cy="19" r="2.1"/><circle cx="90" cy="32" r="2.1"/>
    </g>
    <circle cx="62" cy="50" r="14" fill="url(#sn)"/>
    <circle cx="58" cy="46" r="3.4" fill="#FFFEF8" opacity="0.85"/>
    <path d="M40,36 L-4,108 L72,108 Z" fill="url(#lm)"/>
    <path d="M84,32 L48,108 L124,108 Z" fill="url(#rm)"/>
    <path d="M40,36 L57,73" stroke="#7FA0D8" stroke-width="1.5" stroke-linecap="round" opacity="0.85" fill="none"/>
    <path d="M84,32 L64,73" stroke="#9CB6E0" stroke-width="1.5" stroke-linecap="round" opacity="0.9" fill="none"/>
  </g>
</svg>
